<?xml version="1.0" encoding="UTF-8" standalone="no"?>
<svg
   xmlns:dc="http://purl.org/dc/elements/1.1/"
   xmlns:cc="http://creativecommons.org/ns#"
   xmlns:rdf="http://www.w3.org/1999/02/22-rdf-syntax-ns#"
   xmlns:svg="http://www.w3.org/2000/svg"
   xmlns="http://www.w3.org/2000/svg"
   viewBox="0 0 676.46667 289.98666"
   height="289.98666"
   width="676.46667"
   xml:space="preserve"
   id="svg2"
   version="1.1"><metadata
     id="metadata8"><rdf:RDF><cc:Work
         rdf:about=""><dc:format>image/svg+xml</dc:format><dc:type
           rdf:resource="http://purl.org/dc/dcmitype/StillImage" /></cc:Work></rdf:RDF></metadata><defs
     id="defs6" /><g
     transform="matrix(1.3333333,0,0,-1.3333333,0,289.98667)"
     id="g10"><g
       transform="scale(0.1)"
       id="g12"><path
         id="path14"
         style="fill:#ffffff;fill-opacity:1;fill-rule:nonzero;stroke:none"
         d="m 2722.93,1058.8 h 83.41 c 31.43,0 46.54,-13.9 46.54,-39.29 0,-33.24 -24.18,-41.1 -51.98,-41.1 h -77.97 z M 2589.96,875.66 h 244.8 c 76.15,0 151.09,44.738 151.09,131.16 0,63.46 -36.26,94.29 -74.94,107.59 32.03,17.53 53.18,41.1 53.18,84.62 0,44.12 -24.17,108.19 -137.8,108.19 h -236.33 z m 132.97,328.81 h 70.12 c 27.19,0 45.32,-7.86 45.32,-29.62 0,-27.8 -17.52,-35.66 -45.32,-35.66 h -70.12 z m 574.8,-114.84 c -8.46,71.32 -59.83,106.98 -126.31,106.98 -95.51,0 -147.48,-75.55 -147.48,-165.01 0,-89.452 51.97,-165.01 147.48,-165.01 69.5,0 118.46,45.941 128.74,120.898 h -38.09 c -4.82,-51.988 -43.52,-88.859 -90.65,-88.859 -73.15,0 -109.41,66.48 -109.41,132.971 0,66.49 36.26,132.97 109.41,132.97 49.56,0 77.96,-28.4 88.24,-74.94 z m 255.07,-93.091 c 0.6,-61.039 -50.77,-97.91 -108.8,-97.91 -35.66,0 -69.51,23.57 -69.51,61.652 0,61.049 80.39,60.439 145.06,71.929 10.28,1.81 27.2,4.83 32.04,13.9 h 1.21 z m -165.01,95.501 c 1.21,50.77 36.27,72.53 83.41,72.53 44.73,0 81.6,-12.69 81.6,-64.06 0,-34.46 -17.53,-38.69 -48.96,-42.31 -82.2,-9.68 -167.42,-12.7 -167.42,-100.341 0,-62.847 47.14,-91.269 104.57,-91.269 59.83,0 87.03,22.98 113.62,63.469 h 1.21 c 0,-32.637 6.05,-54.399 44.74,-54.399 10.26,0 16.32,0.602 24.77,2.418 v 32.031 c -3.02,-1.211 -7.86,-2.418 -12.09,-2.418 -15.11,0 -22.36,8.469 -22.36,22.969 v 165.61 c 0,83.41 -59.84,100.34 -114.84,100.34 -71.33,0 -122.7,-31.43 -126.33,-104.57 z m 304.03,-60.44 c 0,64.67 29.62,132.97 102.14,132.97 80.99,0 109.4,-68.3 109.4,-132.97 0,-64.67 -28.41,-132.971 -109.4,-132.971 -72.52,0 -102.14,68.301 -102.14,132.971 m 249.63,275.62 h -38.09 v -178.91 h -1.21 c -16.32,44.73 -61.65,68.3 -108.19,68.3 -94.89,0 -140.23,-76.76 -140.23,-165.01 0,-88.241 45.34,-165.01 140.23,-165.01 45.34,0 94.89,27.808 111.22,68.301 h 1.21 V 875.66 h 35.06 z m 334.83,-285.89 c 3.03,87.64 -36.87,175.28 -137.2,175.28 -99.13,0 -140.83,-82.81 -140.83,-165.01 0,-88.85 41.7,-165.01 140.83,-165.01 78.58,0 119.67,41.101 135.99,111.82 H 4237 c -12.09,-47.14 -42.31,-79.781 -97.92,-79.781 -73.14,0 -102.15,67.09 -102.75,122.701 z m -239.95,32.03 c 6.04,56.82 40.5,111.21 102.75,111.21 61.65,0 97.32,-53.79 99.12,-111.21 z m 291.34,-177.7 h 38.07 v 174.07 c 0.6,65.28 27.19,114.84 93.08,114.84 48.35,0 65.89,-35.05 65.27,-77.36 V 875.66 h 38.08 v 176.49 c 0,58.03 18.74,112.42 84.63,112.42 54.39,0 73.73,-27.8 73.73,-79.17 V 875.66 h 38.08 v 211.55 c 0,73.74 -35.06,109.4 -103.36,109.4 -41.1,0 -80.38,-19.95 -99.12,-61.05 -11.49,41.1 -48.36,61.05 -89.46,61.05 -49.56,0 -82.2,-24.18 -102.14,-61.65 h -1.82 v 52.58 h -35.04 z m 592.93,1.211 -13.31,-35.66 c -12.69,-29.012 -20.55,-48.961 -54.4,-48.961 -8.46,0 -16.91,1.211 -25.99,3.02 v -32.032 c 6.05,-2.41 13.91,-2.41 29.02,-3.019 47.75,0 60.44,15.109 82.21,67.699 l 135.39,359.622 h -38.09 l -96.09,-265.938 -102.76,265.938 h -40.5 L 4920.6,876.871" /><path
         id="path16"
         style="fill:#ffffff;fill-opacity:1;fill-rule:nonzero;stroke:none"
         d="M 0,2174.89 V 0 H 2174.89 V 869.961 H 1739.92 V 434.98 H 434.98 v 1304.93 h 1304.94 v -434.98 h 434.97 v 869.96 H 0" /><path
         id="path18"
         style="fill:#ffffff;fill-opacity:1;fill-rule:nonzero;stroke:none"
         d="M 869.949,869.961 H 1739.9 V 1304.93 H 869.949 V 869.961" /></g></g></svg>